<?xml version="1.0" standalone="no"?>
<!DOCTYPE svg PUBLIC "-//W3C//DTD SVG 20010904//EN"
 "http://www.w3.org/TR/2001/REC-SVG-20010904/DTD/svg10.dtd">
<svg version="1.0" xmlns="http://www.w3.org/2000/svg"
 width="720.000000pt" height="720.000000pt" viewBox="0 0 720.000000 720.000000"
 preserveAspectRatio="xMidYMid meet">

<g transform="translate(0.000000,720.000000) scale(0.100000,-0.100000)"
fill="#000000" stroke="none">
<path d="M0 3600 l0 -3600 3600 0 3600 0 0 3600 0 3600 -3600 0 -3600 0 0
-3600z m4935 2274 c384 -47 753 -199 1085 -446 125 -93 346 -316 445 -449 232
-311 380 -664 436 -1043 28 -192 28 -486 0 -671 -114 -750 -565 -1373 -1241
-1714 -334 -169 -648 -244 -1030 -244 -223 0 -362 17 -565 68 -706 178 -1296
694 -1569 1375 l-34 85 -921 3 -921 2 0 110 0 110 130 0 130 0 0 845 0 845
-130 0 -130 0 0 145 0 145 525 0 525 0 0 -145 0 -145 -135 0 -135 0 0 -745 0
-746 111 3 112 3 273 435 c151 239 281 440 289 446 9 7 64 24 123 39 l108 26
27 89 c174 571 632 1100 1182 1365 413 198 841 267 1310 209z"/>
<path d="M4303 5800 c-376 -57 -722 -205 -1038 -443 -110 -83 -327 -302 -412
-417 -167 -226 -294 -483 -364 -737 l-22 -82 168 -293 c92 -161 203 -355 247
-430 l80 -138 69 0 69 0 0 -100 0 -100 55 0 55 0 0 100 0 100 90 0 90 0 0 345
0 345 -90 0 -90 0 0 106 0 106 533 -5 c567 -5 618 -9 721 -57 57 -27 118 -95
134 -148 15 -48 15 -144 2 -194 -26 -91 -125 -172 -251 -205 -38 -9 -69 -21
-69 -24 0 -4 57 -66 126 -138 l126 -131 99 0 99 0 0 -100 0 -100 40 0 39 0 3
93 3 92 115 5 115 5 192 160 c106 88 192 163 193 166 0 4 -97 86 -215 183
l-214 176 -76 0 -75 0 0 105 0 105 320 0 320 0 0 -104 c0 -90 -2 -105 -17
-108 -11 -2 25 -37 105 -101 109 -89 123 -97 140 -85 10 7 64 51 120 98 l101
85 -39 3 -40 3 0 105 0 104 325 0 325 0 0 -105 0 -105 -116 0 -115 0 -190
-156 c-104 -85 -189 -158 -189 -162 1 -4 111 -89 245 -189 l245 -183 75 0 75
0 0 -205 0 -205 -2000 0 c-1100 0 -2000 -2 -2000 -5 0 -2 20 -52 45 -110 170
-397 459 -743 820 -982 561 -371 1286 -466 1929 -252 338 113 608 280 862 533
341 341 542 730 629 1216 26 148 32 473 10 640 -31 248 -104 489 -216 713
-116 231 -228 386 -414 573 -187 188 -341 300 -573 417 -226 115 -467 190
-710 221 -170 22 -459 20 -619 -4z"/>
<path d="M3770 3831 l0 -121 163 0 c195 1 243 9 274 45 27 31 31 91 9 134 -25
47 -55 54 -258 59 l-188 4 0 -121z"/>
<path d="M2195 3664 c-32 -55 -60 -102 -62 -106 -2 -5 50 -8 117 -8 l121 0
-46 88 c-72 141 -62 139 -130 26z"/>
<path d="M3770 3386 l0 -126 100 0 100 0 0 -100 0 -100 135 0 135 0 -188 223
-188 222 -47 3 -47 3 0 -125z"/>
<path d="M5505 3355 l-110 -104 43 -1 42 0 0 -95 0 -95 175 0 175 0 0 94 c0
86 2 95 20 98 15 2 -8 25 -92 93 -61 50 -118 95 -127 102 -14 9 -34 -5 -126
-92z"/>
<path d="M1981 3304 c-12 -19 -21 -37 -21 -40 0 -2 23 -4 50 -4 l50 0 0 -100
0 -100 185 0 185 0 0 100 0 100 40 0 c44 0 47 7 25 50 l-16 30 -238 0 -239 0
-21 -36z"/>
</g>
</svg>
